%TF.GenerationSoftware,KiCad,Pcbnew,8.0.4*%
%TF.CreationDate,2024-10-21T10:59:18-07:00*%
%TF.ProjectId,adapter,61646170-7465-4722-9e6b-696361645f70,rev?*%
%TF.SameCoordinates,Original*%
%TF.FileFunction,Legend,Bot*%
%TF.FilePolarity,Positive*%
%FSLAX46Y46*%
G04 Gerber Fmt 4.6, Leading zero omitted, Abs format (unit mm)*
G04 Created by KiCad (PCBNEW 8.0.4) date 2024-10-21 10:59:18*
%MOMM*%
%LPD*%
G01*
G04 APERTURE LIST*
%ADD10C,0.150000*%
%ADD11C,0.120000*%
G04 APERTURE END LIST*
D10*
X97184819Y-85708333D02*
X96708628Y-85375000D01*
X97184819Y-85136905D02*
X96184819Y-85136905D01*
X96184819Y-85136905D02*
X96184819Y-85517857D01*
X96184819Y-85517857D02*
X96232438Y-85613095D01*
X96232438Y-85613095D02*
X96280057Y-85660714D01*
X96280057Y-85660714D02*
X96375295Y-85708333D01*
X96375295Y-85708333D02*
X96518152Y-85708333D01*
X96518152Y-85708333D02*
X96613390Y-85660714D01*
X96613390Y-85660714D02*
X96661009Y-85613095D01*
X96661009Y-85613095D02*
X96708628Y-85517857D01*
X96708628Y-85517857D02*
X96708628Y-85136905D01*
X96184819Y-86613095D02*
X96184819Y-86136905D01*
X96184819Y-86136905D02*
X96661009Y-86089286D01*
X96661009Y-86089286D02*
X96613390Y-86136905D01*
X96613390Y-86136905D02*
X96565771Y-86232143D01*
X96565771Y-86232143D02*
X96565771Y-86470238D01*
X96565771Y-86470238D02*
X96613390Y-86565476D01*
X96613390Y-86565476D02*
X96661009Y-86613095D01*
X96661009Y-86613095D02*
X96756247Y-86660714D01*
X96756247Y-86660714D02*
X96994342Y-86660714D01*
X96994342Y-86660714D02*
X97089580Y-86613095D01*
X97089580Y-86613095D02*
X97137200Y-86565476D01*
X97137200Y-86565476D02*
X97184819Y-86470238D01*
X97184819Y-86470238D02*
X97184819Y-86232143D01*
X97184819Y-86232143D02*
X97137200Y-86136905D01*
X97137200Y-86136905D02*
X97089580Y-86089286D01*
X94866666Y-84054819D02*
X95199999Y-83578628D01*
X95438094Y-84054819D02*
X95438094Y-83054819D01*
X95438094Y-83054819D02*
X95057142Y-83054819D01*
X95057142Y-83054819D02*
X94961904Y-83102438D01*
X94961904Y-83102438D02*
X94914285Y-83150057D01*
X94914285Y-83150057D02*
X94866666Y-83245295D01*
X94866666Y-83245295D02*
X94866666Y-83388152D01*
X94866666Y-83388152D02*
X94914285Y-83483390D01*
X94914285Y-83483390D02*
X94961904Y-83531009D01*
X94961904Y-83531009D02*
X95057142Y-83578628D01*
X95057142Y-83578628D02*
X95438094Y-83578628D01*
X94533332Y-83054819D02*
X93914285Y-83054819D01*
X93914285Y-83054819D02*
X94247618Y-83435771D01*
X94247618Y-83435771D02*
X94104761Y-83435771D01*
X94104761Y-83435771D02*
X94009523Y-83483390D01*
X94009523Y-83483390D02*
X93961904Y-83531009D01*
X93961904Y-83531009D02*
X93914285Y-83626247D01*
X93914285Y-83626247D02*
X93914285Y-83864342D01*
X93914285Y-83864342D02*
X93961904Y-83959580D01*
X93961904Y-83959580D02*
X94009523Y-84007200D01*
X94009523Y-84007200D02*
X94104761Y-84054819D01*
X94104761Y-84054819D02*
X94390475Y-84054819D01*
X94390475Y-84054819D02*
X94485713Y-84007200D01*
X94485713Y-84007200D02*
X94533332Y-83959580D01*
X81704819Y-85683333D02*
X81228628Y-85350000D01*
X81704819Y-85111905D02*
X80704819Y-85111905D01*
X80704819Y-85111905D02*
X80704819Y-85492857D01*
X80704819Y-85492857D02*
X80752438Y-85588095D01*
X80752438Y-85588095D02*
X80800057Y-85635714D01*
X80800057Y-85635714D02*
X80895295Y-85683333D01*
X80895295Y-85683333D02*
X81038152Y-85683333D01*
X81038152Y-85683333D02*
X81133390Y-85635714D01*
X81133390Y-85635714D02*
X81181009Y-85588095D01*
X81181009Y-85588095D02*
X81228628Y-85492857D01*
X81228628Y-85492857D02*
X81228628Y-85111905D01*
X80800057Y-86064286D02*
X80752438Y-86111905D01*
X80752438Y-86111905D02*
X80704819Y-86207143D01*
X80704819Y-86207143D02*
X80704819Y-86445238D01*
X80704819Y-86445238D02*
X80752438Y-86540476D01*
X80752438Y-86540476D02*
X80800057Y-86588095D01*
X80800057Y-86588095D02*
X80895295Y-86635714D01*
X80895295Y-86635714D02*
X80990533Y-86635714D01*
X80990533Y-86635714D02*
X81133390Y-86588095D01*
X81133390Y-86588095D02*
X81704819Y-86016667D01*
X81704819Y-86016667D02*
X81704819Y-86635714D01*
X83516666Y-84054819D02*
X83849999Y-83578628D01*
X84088094Y-84054819D02*
X84088094Y-83054819D01*
X84088094Y-83054819D02*
X83707142Y-83054819D01*
X83707142Y-83054819D02*
X83611904Y-83102438D01*
X83611904Y-83102438D02*
X83564285Y-83150057D01*
X83564285Y-83150057D02*
X83516666Y-83245295D01*
X83516666Y-83245295D02*
X83516666Y-83388152D01*
X83516666Y-83388152D02*
X83564285Y-83483390D01*
X83564285Y-83483390D02*
X83611904Y-83531009D01*
X83611904Y-83531009D02*
X83707142Y-83578628D01*
X83707142Y-83578628D02*
X84088094Y-83578628D01*
X82659523Y-83388152D02*
X82659523Y-84054819D01*
X82897618Y-83007200D02*
X83135713Y-83721485D01*
X83135713Y-83721485D02*
X82516666Y-83721485D01*
X97154819Y-89208333D02*
X96678628Y-88875000D01*
X97154819Y-88636905D02*
X96154819Y-88636905D01*
X96154819Y-88636905D02*
X96154819Y-89017857D01*
X96154819Y-89017857D02*
X96202438Y-89113095D01*
X96202438Y-89113095D02*
X96250057Y-89160714D01*
X96250057Y-89160714D02*
X96345295Y-89208333D01*
X96345295Y-89208333D02*
X96488152Y-89208333D01*
X96488152Y-89208333D02*
X96583390Y-89160714D01*
X96583390Y-89160714D02*
X96631009Y-89113095D01*
X96631009Y-89113095D02*
X96678628Y-89017857D01*
X96678628Y-89017857D02*
X96678628Y-88636905D01*
X96154819Y-90065476D02*
X96154819Y-89875000D01*
X96154819Y-89875000D02*
X96202438Y-89779762D01*
X96202438Y-89779762D02*
X96250057Y-89732143D01*
X96250057Y-89732143D02*
X96392914Y-89636905D01*
X96392914Y-89636905D02*
X96583390Y-89589286D01*
X96583390Y-89589286D02*
X96964342Y-89589286D01*
X96964342Y-89589286D02*
X97059580Y-89636905D01*
X97059580Y-89636905D02*
X97107200Y-89684524D01*
X97107200Y-89684524D02*
X97154819Y-89779762D01*
X97154819Y-89779762D02*
X97154819Y-89970238D01*
X97154819Y-89970238D02*
X97107200Y-90065476D01*
X97107200Y-90065476D02*
X97059580Y-90113095D01*
X97059580Y-90113095D02*
X96964342Y-90160714D01*
X96964342Y-90160714D02*
X96726247Y-90160714D01*
X96726247Y-90160714D02*
X96631009Y-90113095D01*
X96631009Y-90113095D02*
X96583390Y-90065476D01*
X96583390Y-90065476D02*
X96535771Y-89970238D01*
X96535771Y-89970238D02*
X96535771Y-89779762D01*
X96535771Y-89779762D02*
X96583390Y-89684524D01*
X96583390Y-89684524D02*
X96631009Y-89636905D01*
X96631009Y-89636905D02*
X96726247Y-89589286D01*
X81704819Y-89383333D02*
X81228628Y-89050000D01*
X81704819Y-88811905D02*
X80704819Y-88811905D01*
X80704819Y-88811905D02*
X80704819Y-89192857D01*
X80704819Y-89192857D02*
X80752438Y-89288095D01*
X80752438Y-89288095D02*
X80800057Y-89335714D01*
X80800057Y-89335714D02*
X80895295Y-89383333D01*
X80895295Y-89383333D02*
X81038152Y-89383333D01*
X81038152Y-89383333D02*
X81133390Y-89335714D01*
X81133390Y-89335714D02*
X81181009Y-89288095D01*
X81181009Y-89288095D02*
X81228628Y-89192857D01*
X81228628Y-89192857D02*
X81228628Y-88811905D01*
X81704819Y-90335714D02*
X81704819Y-89764286D01*
X81704819Y-90050000D02*
X80704819Y-90050000D01*
X80704819Y-90050000D02*
X80847676Y-89954762D01*
X80847676Y-89954762D02*
X80942914Y-89859524D01*
X80942914Y-89859524D02*
X80990533Y-89764286D01*
D11*
%TO.C,R5*%
X94777500Y-85637742D02*
X94777500Y-86112258D01*
X95822500Y-85637742D02*
X95822500Y-86112258D01*
%TO.C,R3*%
X92512258Y-83077500D02*
X92037742Y-83077500D01*
X92512258Y-84122500D02*
X92037742Y-84122500D01*
%TO.C,R2*%
X82077500Y-85612742D02*
X82077500Y-86087258D01*
X83122500Y-85612742D02*
X83122500Y-86087258D01*
%TO.C,R4*%
X85487742Y-83077500D02*
X85962258Y-83077500D01*
X85487742Y-84122500D02*
X85962258Y-84122500D01*
%TO.C,R6*%
X94777500Y-89612258D02*
X94777500Y-89137742D01*
X95822500Y-89612258D02*
X95822500Y-89137742D01*
%TO.C,R1*%
X82077500Y-89312742D02*
X82077500Y-89787258D01*
X83122500Y-89312742D02*
X83122500Y-89787258D01*
%TD*%
M02*
