%TF.GenerationSoftware,KiCad,Pcbnew,8.0.4*%
%TF.CreationDate,2024-10-21T10:59:18-07:00*%
%TF.ProjectId,adapter,61646170-7465-4722-9e6b-696361645f70,rev?*%
%TF.SameCoordinates,Original*%
%TF.FileFunction,Legend,Top*%
%TF.FilePolarity,Positive*%
%FSLAX46Y46*%
G04 Gerber Fmt 4.6, Leading zero omitted, Abs format (unit mm)*
G04 Created by KiCad (PCBNEW 8.0.4) date 2024-10-21 10:59:18*
%MOMM*%
%LPD*%
G01*
G04 APERTURE LIST*
%ADD10C,0.150000*%
%ADD11C,0.100000*%
%ADD12C,0.120000*%
G04 APERTURE END LIST*
D10*
X83281666Y-82754819D02*
X83281666Y-83469104D01*
X83281666Y-83469104D02*
X83234047Y-83611961D01*
X83234047Y-83611961D02*
X83138809Y-83707200D01*
X83138809Y-83707200D02*
X82995952Y-83754819D01*
X82995952Y-83754819D02*
X82900714Y-83754819D01*
X84234047Y-82754819D02*
X83757857Y-82754819D01*
X83757857Y-82754819D02*
X83710238Y-83231009D01*
X83710238Y-83231009D02*
X83757857Y-83183390D01*
X83757857Y-83183390D02*
X83853095Y-83135771D01*
X83853095Y-83135771D02*
X84091190Y-83135771D01*
X84091190Y-83135771D02*
X84186428Y-83183390D01*
X84186428Y-83183390D02*
X84234047Y-83231009D01*
X84234047Y-83231009D02*
X84281666Y-83326247D01*
X84281666Y-83326247D02*
X84281666Y-83564342D01*
X84281666Y-83564342D02*
X84234047Y-83659580D01*
X84234047Y-83659580D02*
X84186428Y-83707200D01*
X84186428Y-83707200D02*
X84091190Y-83754819D01*
X84091190Y-83754819D02*
X83853095Y-83754819D01*
X83853095Y-83754819D02*
X83757857Y-83707200D01*
X83757857Y-83707200D02*
X83710238Y-83659580D01*
X74904819Y-86643333D02*
X75619104Y-86643333D01*
X75619104Y-86643333D02*
X75761961Y-86690952D01*
X75761961Y-86690952D02*
X75857200Y-86786190D01*
X75857200Y-86786190D02*
X75904819Y-86929047D01*
X75904819Y-86929047D02*
X75904819Y-87024285D01*
X74904819Y-86262380D02*
X74904819Y-85643333D01*
X74904819Y-85643333D02*
X75285771Y-85976666D01*
X75285771Y-85976666D02*
X75285771Y-85833809D01*
X75285771Y-85833809D02*
X75333390Y-85738571D01*
X75333390Y-85738571D02*
X75381009Y-85690952D01*
X75381009Y-85690952D02*
X75476247Y-85643333D01*
X75476247Y-85643333D02*
X75714342Y-85643333D01*
X75714342Y-85643333D02*
X75809580Y-85690952D01*
X75809580Y-85690952D02*
X75857200Y-85738571D01*
X75857200Y-85738571D02*
X75904819Y-85833809D01*
X75904819Y-85833809D02*
X75904819Y-86119523D01*
X75904819Y-86119523D02*
X75857200Y-86214761D01*
X75857200Y-86214761D02*
X75809580Y-86262380D01*
X97804819Y-92088333D02*
X98519104Y-92088333D01*
X98519104Y-92088333D02*
X98661961Y-92135952D01*
X98661961Y-92135952D02*
X98757200Y-92231190D01*
X98757200Y-92231190D02*
X98804819Y-92374047D01*
X98804819Y-92374047D02*
X98804819Y-92469285D01*
X97804819Y-91707380D02*
X97804819Y-91040714D01*
X97804819Y-91040714D02*
X98804819Y-91469285D01*
X89678571Y-83814700D02*
X90821429Y-83814700D01*
X90250000Y-84386128D02*
X90250000Y-83243271D01*
X87178571Y-83814700D02*
X88321429Y-83814700D01*
X97904819Y-86653333D02*
X98619104Y-86653333D01*
X98619104Y-86653333D02*
X98761961Y-86700952D01*
X98761961Y-86700952D02*
X98857200Y-86796190D01*
X98857200Y-86796190D02*
X98904819Y-86939047D01*
X98904819Y-86939047D02*
X98904819Y-87034285D01*
X97904819Y-85748571D02*
X97904819Y-85939047D01*
X97904819Y-85939047D02*
X97952438Y-86034285D01*
X97952438Y-86034285D02*
X98000057Y-86081904D01*
X98000057Y-86081904D02*
X98142914Y-86177142D01*
X98142914Y-86177142D02*
X98333390Y-86224761D01*
X98333390Y-86224761D02*
X98714342Y-86224761D01*
X98714342Y-86224761D02*
X98809580Y-86177142D01*
X98809580Y-86177142D02*
X98857200Y-86129523D01*
X98857200Y-86129523D02*
X98904819Y-86034285D01*
X98904819Y-86034285D02*
X98904819Y-85843809D01*
X98904819Y-85843809D02*
X98857200Y-85748571D01*
X98857200Y-85748571D02*
X98809580Y-85700952D01*
X98809580Y-85700952D02*
X98714342Y-85653333D01*
X98714342Y-85653333D02*
X98476247Y-85653333D01*
X98476247Y-85653333D02*
X98381009Y-85700952D01*
X98381009Y-85700952D02*
X98333390Y-85748571D01*
X98333390Y-85748571D02*
X98285771Y-85843809D01*
X98285771Y-85843809D02*
X98285771Y-86034285D01*
X98285771Y-86034285D02*
X98333390Y-86129523D01*
X98333390Y-86129523D02*
X98381009Y-86177142D01*
X98381009Y-86177142D02*
X98476247Y-86224761D01*
X88616666Y-93104819D02*
X88616666Y-93819104D01*
X88616666Y-93819104D02*
X88569047Y-93961961D01*
X88569047Y-93961961D02*
X88473809Y-94057200D01*
X88473809Y-94057200D02*
X88330952Y-94104819D01*
X88330952Y-94104819D02*
X88235714Y-94104819D01*
X89616666Y-94104819D02*
X89045238Y-94104819D01*
X89330952Y-94104819D02*
X89330952Y-93104819D01*
X89330952Y-93104819D02*
X89235714Y-93247676D01*
X89235714Y-93247676D02*
X89140476Y-93342914D01*
X89140476Y-93342914D02*
X89045238Y-93390533D01*
X93971666Y-82754819D02*
X93971666Y-83469104D01*
X93971666Y-83469104D02*
X93924047Y-83611961D01*
X93924047Y-83611961D02*
X93828809Y-83707200D01*
X93828809Y-83707200D02*
X93685952Y-83754819D01*
X93685952Y-83754819D02*
X93590714Y-83754819D01*
X94876428Y-83088152D02*
X94876428Y-83754819D01*
X94638333Y-82707200D02*
X94400238Y-83421485D01*
X94400238Y-83421485D02*
X95019285Y-83421485D01*
X74904819Y-92093333D02*
X75619104Y-92093333D01*
X75619104Y-92093333D02*
X75761961Y-92140952D01*
X75761961Y-92140952D02*
X75857200Y-92236190D01*
X75857200Y-92236190D02*
X75904819Y-92379047D01*
X75904819Y-92379047D02*
X75904819Y-92474285D01*
X75000057Y-91664761D02*
X74952438Y-91617142D01*
X74952438Y-91617142D02*
X74904819Y-91521904D01*
X74904819Y-91521904D02*
X74904819Y-91283809D01*
X74904819Y-91283809D02*
X74952438Y-91188571D01*
X74952438Y-91188571D02*
X75000057Y-91140952D01*
X75000057Y-91140952D02*
X75095295Y-91093333D01*
X75095295Y-91093333D02*
X75190533Y-91093333D01*
X75190533Y-91093333D02*
X75333390Y-91140952D01*
X75333390Y-91140952D02*
X75904819Y-91712380D01*
X75904819Y-91712380D02*
X75904819Y-91093333D01*
D11*
%TO.C,J5*%
X81050000Y-77860000D02*
X81050000Y-78360000D01*
X81050000Y-77860000D02*
X81550000Y-77860000D01*
X81060000Y-84430000D02*
X81060000Y-83930000D01*
X81060000Y-84430000D02*
X81560000Y-84430000D01*
X86200000Y-77850000D02*
X85700000Y-77850000D01*
X86200000Y-77850000D02*
X86200000Y-78350000D01*
X86200000Y-84450000D02*
X85700000Y-84450000D01*
X86200000Y-84450000D02*
X86200000Y-83950000D01*
%TO.C,J3*%
X74200000Y-83750000D02*
X74200000Y-84250000D01*
X74200000Y-83750000D02*
X74700000Y-83750000D01*
X74210000Y-88900000D02*
X74210000Y-88400000D01*
X74210000Y-88900000D02*
X74710000Y-88900000D01*
X80780000Y-88890000D02*
X80280000Y-88890000D01*
X80780000Y-88890000D02*
X80780000Y-88390000D01*
X80800000Y-83750000D02*
X80300000Y-83750000D01*
X80800000Y-83750000D02*
X80800000Y-84250000D01*
%TO.C,J7*%
X97200000Y-94340000D02*
X97200000Y-93840000D01*
X97200000Y-94340000D02*
X97700000Y-94340000D01*
X97220000Y-89200000D02*
X97220000Y-89700000D01*
X97220000Y-89200000D02*
X97720000Y-89200000D01*
X103790000Y-89190000D02*
X103290000Y-89190000D01*
X103790000Y-89190000D02*
X103790000Y-89690000D01*
X103800000Y-94340000D02*
X103300000Y-94340000D01*
X103800000Y-94340000D02*
X103800000Y-93840000D01*
D12*
%TO.C,J8*%
X83740000Y-86340000D02*
X83740000Y-89160000D01*
X83740000Y-86340000D02*
X85440000Y-85040000D01*
X83740000Y-89160000D02*
X85440000Y-90460000D01*
X85440000Y-85040000D02*
X94160000Y-85040000D01*
X85440000Y-90460000D02*
X94160000Y-90460000D01*
X94160000Y-85040000D02*
X94160000Y-90460000D01*
D11*
%TO.C,J6*%
X97200000Y-83760000D02*
X97200000Y-84260000D01*
X97200000Y-83760000D02*
X97700000Y-83760000D01*
X97210000Y-88910000D02*
X97210000Y-88410000D01*
X97210000Y-88910000D02*
X97710000Y-88910000D01*
X103780000Y-88900000D02*
X103280000Y-88900000D01*
X103780000Y-88900000D02*
X103780000Y-88400000D01*
X103800000Y-83760000D02*
X103300000Y-83760000D01*
X103800000Y-83760000D02*
X103800000Y-84260000D01*
%TO.C,J4*%
X91740000Y-77860000D02*
X91740000Y-78360000D01*
X91740000Y-77860000D02*
X92240000Y-77860000D01*
X91750000Y-84430000D02*
X91750000Y-83930000D01*
X91750000Y-84430000D02*
X92250000Y-84430000D01*
X96890000Y-77850000D02*
X96390000Y-77850000D01*
X96890000Y-77850000D02*
X96890000Y-78350000D01*
X96890000Y-84450000D02*
X96390000Y-84450000D01*
X96890000Y-84450000D02*
X96890000Y-83950000D01*
%TO.C,J2*%
X74200000Y-89200000D02*
X74200000Y-89700000D01*
X74200000Y-89200000D02*
X74700000Y-89200000D01*
X74210000Y-94350000D02*
X74210000Y-93850000D01*
X74210000Y-94350000D02*
X74710000Y-94350000D01*
X80780000Y-94340000D02*
X80280000Y-94340000D01*
X80780000Y-94340000D02*
X80780000Y-93840000D01*
X80800000Y-89200000D02*
X80300000Y-89200000D01*
X80800000Y-89200000D02*
X80800000Y-89700000D01*
%TD*%
M02*
