M48
; DRILL file {KiCad 8.0.4} date 2024-10-10T13:01:33-0700
; FORMAT={-:-/ absolute / metric / decimal}
; #@! TF.CreationDate,2024-10-10T13:01:33-07:00
; #@! TF.GenerationSoftware,Kicad,Pcbnew,8.0.4
; #@! TF.FileFunction,MixedPlating,1,2
FMAT,2
METRIC
; #@! TA.AperFunction,Plated,PTH,ViaDrill
T1C0.300
; #@! TA.AperFunction,Plated,PTH,ComponentDrill
T2C0.762
; #@! TA.AperFunction,Plated,PTH,ComponentDrill
T3C0.900
; #@! TA.AperFunction,Plated,PTH,ComponentDrill
T4C0.914
; #@! TA.AperFunction,Plated,PTH,ComponentDrill
T5C1.000
; #@! TA.AperFunction,Plated,PTH,ComponentDrill
T6C1.016
; #@! TA.AperFunction,NonPlated,NPTH,ComponentDrill
T7C0.991
%
G90
G05
T1
X137.55Y-88.45
X138.792Y-100.593
X139.25Y-112.15
X140.45Y-89.6
X143.551Y-86.75
X143.8Y-101.35
X150.4Y-99.3
X154.8Y-112.15
T2
X135.21Y-115.13
X137.75Y-115.15
T3
X140.45Y-79.1
X140.45Y-81.6
X140.45Y-84.1
T4
X137.785Y-73.3
X140.325Y-73.3
X142.865Y-73.3
X145.405Y-73.3
X147.945Y-73.3
X150.485Y-73.3
X153.025Y-73.3
X155.565Y-73.3
T5
X145.655Y-78.25
X147.655Y-78.25
T6
X135.245Y-76.2
X135.245Y-78.74
X135.245Y-81.28
X135.245Y-83.82
X135.245Y-86.36
X135.245Y-88.9
X135.245Y-91.44
X135.245Y-93.98
X135.245Y-96.52
X135.245Y-99.06
X135.245Y-101.6
X135.245Y-104.14
X135.245Y-106.68
X158.105Y-76.2
X158.105Y-78.74
X158.105Y-81.28
X158.105Y-83.82
X158.105Y-86.36
X158.105Y-88.9
X158.105Y-91.44
X158.105Y-93.98
X158.105Y-96.52
X158.105Y-99.06
X158.105Y-101.6
X158.105Y-104.14
X158.105Y-106.68
T7
X142.1Y-112.366
X150.1Y-112.366
M30
