G04 #@! TF.GenerationSoftware,KiCad,Pcbnew,8.0.4*
G04 #@! TF.CreationDate,2024-10-10T13:01:36-07:00*
G04 #@! TF.ProjectId,TelemetryComputer,54656c65-6d65-4747-9279-436f6d707574,rev?*
G04 #@! TF.SameCoordinates,Original*
G04 #@! TF.FileFunction,Legend,Bot*
G04 #@! TF.FilePolarity,Positive*
%FSLAX46Y46*%
G04 Gerber Fmt 4.6, Leading zero omitted, Abs format (unit mm)*
G04 Created by KiCad (PCBNEW 8.0.4) date 2024-10-10 13:01:36*
%MOMM*%
%LPD*%
G01*
G04 APERTURE LIST*
G04 Aperture macros list*
%AMRoundRect*
0 Rectangle with rounded corners*
0 $1 Rounding radius*
0 $2 $3 $4 $5 $6 $7 $8 $9 X,Y pos of 4 corners*
0 Add a 4 corners polygon primitive as box body*
4,1,4,$2,$3,$4,$5,$6,$7,$8,$9,$2,$3,0*
0 Add four circle primitives for the rounded corners*
1,1,$1+$1,$2,$3*
1,1,$1+$1,$4,$5*
1,1,$1+$1,$6,$7*
1,1,$1+$1,$8,$9*
0 Add four rect primitives between the rounded corners*
20,1,$1+$1,$2,$3,$4,$5,0*
20,1,$1+$1,$4,$5,$6,$7,0*
20,1,$1+$1,$6,$7,$8,$9,0*
20,1,$1+$1,$8,$9,$2,$3,0*%
G04 Aperture macros list end*
%ADD10C,0.300000*%
%ADD11C,0.150000*%
%ADD12C,0.120000*%
%ADD13C,0.100000*%
%ADD14C,1.524000*%
%ADD15C,0.990600*%
%ADD16R,1.900000X1.900000*%
%ADD17C,1.900000*%
%ADD18RoundRect,0.225000X-0.250000X0.225000X-0.250000X-0.225000X0.250000X-0.225000X0.250000X0.225000X0*%
%ADD19RoundRect,0.140000X-0.170000X0.140000X-0.170000X-0.140000X0.170000X-0.140000X0.170000X0.140000X0*%
%ADD20C,1.750000*%
G04 APERTURE END LIST*
D10*
X156866917Y-113350828D02*
X156866917Y-114422257D01*
X156866917Y-114422257D02*
X156938346Y-114636542D01*
X156938346Y-114636542D02*
X157081203Y-114779400D01*
X157081203Y-114779400D02*
X157295489Y-114850828D01*
X157295489Y-114850828D02*
X157438346Y-114850828D01*
X155438346Y-114850828D02*
X156152632Y-114850828D01*
X156152632Y-114850828D02*
X156152632Y-113350828D01*
X154081203Y-114707971D02*
X154152631Y-114779400D01*
X154152631Y-114779400D02*
X154366917Y-114850828D01*
X154366917Y-114850828D02*
X154509774Y-114850828D01*
X154509774Y-114850828D02*
X154724060Y-114779400D01*
X154724060Y-114779400D02*
X154866917Y-114636542D01*
X154866917Y-114636542D02*
X154938346Y-114493685D01*
X154938346Y-114493685D02*
X155009774Y-114207971D01*
X155009774Y-114207971D02*
X155009774Y-113993685D01*
X155009774Y-113993685D02*
X154938346Y-113707971D01*
X154938346Y-113707971D02*
X154866917Y-113565114D01*
X154866917Y-113565114D02*
X154724060Y-113422257D01*
X154724060Y-113422257D02*
X154509774Y-113350828D01*
X154509774Y-113350828D02*
X154366917Y-113350828D01*
X154366917Y-113350828D02*
X154152631Y-113422257D01*
X154152631Y-113422257D02*
X154081203Y-113493685D01*
X153009774Y-113350828D02*
X153009774Y-114422257D01*
X153009774Y-114422257D02*
X153081203Y-114636542D01*
X153081203Y-114636542D02*
X153224060Y-114779400D01*
X153224060Y-114779400D02*
X153438346Y-114850828D01*
X153438346Y-114850828D02*
X153581203Y-114850828D01*
X151581203Y-114850828D02*
X152295489Y-114850828D01*
X152295489Y-114850828D02*
X152295489Y-113350828D01*
X150224060Y-114707971D02*
X150295488Y-114779400D01*
X150295488Y-114779400D02*
X150509774Y-114850828D01*
X150509774Y-114850828D02*
X150652631Y-114850828D01*
X150652631Y-114850828D02*
X150866917Y-114779400D01*
X150866917Y-114779400D02*
X151009774Y-114636542D01*
X151009774Y-114636542D02*
X151081203Y-114493685D01*
X151081203Y-114493685D02*
X151152631Y-114207971D01*
X151152631Y-114207971D02*
X151152631Y-113993685D01*
X151152631Y-113993685D02*
X151081203Y-113707971D01*
X151081203Y-113707971D02*
X151009774Y-113565114D01*
X151009774Y-113565114D02*
X150866917Y-113422257D01*
X150866917Y-113422257D02*
X150652631Y-113350828D01*
X150652631Y-113350828D02*
X150509774Y-113350828D01*
X150509774Y-113350828D02*
X150295488Y-113422257D01*
X150295488Y-113422257D02*
X150224060Y-113493685D01*
X149152631Y-113350828D02*
X149152631Y-114422257D01*
X149152631Y-114422257D02*
X149224060Y-114636542D01*
X149224060Y-114636542D02*
X149366917Y-114779400D01*
X149366917Y-114779400D02*
X149581203Y-114850828D01*
X149581203Y-114850828D02*
X149724060Y-114850828D01*
X147724060Y-114850828D02*
X148438346Y-114850828D01*
X148438346Y-114850828D02*
X148438346Y-113350828D01*
X146366917Y-114707971D02*
X146438345Y-114779400D01*
X146438345Y-114779400D02*
X146652631Y-114850828D01*
X146652631Y-114850828D02*
X146795488Y-114850828D01*
X146795488Y-114850828D02*
X147009774Y-114779400D01*
X147009774Y-114779400D02*
X147152631Y-114636542D01*
X147152631Y-114636542D02*
X147224060Y-114493685D01*
X147224060Y-114493685D02*
X147295488Y-114207971D01*
X147295488Y-114207971D02*
X147295488Y-113993685D01*
X147295488Y-113993685D02*
X147224060Y-113707971D01*
X147224060Y-113707971D02*
X147152631Y-113565114D01*
X147152631Y-113565114D02*
X147009774Y-113422257D01*
X147009774Y-113422257D02*
X146795488Y-113350828D01*
X146795488Y-113350828D02*
X146652631Y-113350828D01*
X146652631Y-113350828D02*
X146438345Y-113422257D01*
X146438345Y-113422257D02*
X146366917Y-113493685D01*
X145295488Y-113350828D02*
X145295488Y-114422257D01*
X145295488Y-114422257D02*
X145366917Y-114636542D01*
X145366917Y-114636542D02*
X145509774Y-114779400D01*
X145509774Y-114779400D02*
X145724060Y-114850828D01*
X145724060Y-114850828D02*
X145866917Y-114850828D01*
X143866917Y-114850828D02*
X144581203Y-114850828D01*
X144581203Y-114850828D02*
X144581203Y-113350828D01*
X142509774Y-114707971D02*
X142581202Y-114779400D01*
X142581202Y-114779400D02*
X142795488Y-114850828D01*
X142795488Y-114850828D02*
X142938345Y-114850828D01*
X142938345Y-114850828D02*
X143152631Y-114779400D01*
X143152631Y-114779400D02*
X143295488Y-114636542D01*
X143295488Y-114636542D02*
X143366917Y-114493685D01*
X143366917Y-114493685D02*
X143438345Y-114207971D01*
X143438345Y-114207971D02*
X143438345Y-113993685D01*
X143438345Y-113993685D02*
X143366917Y-113707971D01*
X143366917Y-113707971D02*
X143295488Y-113565114D01*
X143295488Y-113565114D02*
X143152631Y-113422257D01*
X143152631Y-113422257D02*
X142938345Y-113350828D01*
X142938345Y-113350828D02*
X142795488Y-113350828D01*
X142795488Y-113350828D02*
X142581202Y-113422257D01*
X142581202Y-113422257D02*
X142509774Y-113493685D01*
D11*
X145933333Y-75954819D02*
X145933333Y-76669104D01*
X145933333Y-76669104D02*
X145980952Y-76811961D01*
X145980952Y-76811961D02*
X146076190Y-76907200D01*
X146076190Y-76907200D02*
X146219047Y-76954819D01*
X146219047Y-76954819D02*
X146314285Y-76954819D01*
X145028571Y-75954819D02*
X145219047Y-75954819D01*
X145219047Y-75954819D02*
X145314285Y-76002438D01*
X145314285Y-76002438D02*
X145361904Y-76050057D01*
X145361904Y-76050057D02*
X145457142Y-76192914D01*
X145457142Y-76192914D02*
X145504761Y-76383390D01*
X145504761Y-76383390D02*
X145504761Y-76764342D01*
X145504761Y-76764342D02*
X145457142Y-76859580D01*
X145457142Y-76859580D02*
X145409523Y-76907200D01*
X145409523Y-76907200D02*
X145314285Y-76954819D01*
X145314285Y-76954819D02*
X145123809Y-76954819D01*
X145123809Y-76954819D02*
X145028571Y-76907200D01*
X145028571Y-76907200D02*
X144980952Y-76859580D01*
X144980952Y-76859580D02*
X144933333Y-76764342D01*
X144933333Y-76764342D02*
X144933333Y-76526247D01*
X144933333Y-76526247D02*
X144980952Y-76431009D01*
X144980952Y-76431009D02*
X145028571Y-76383390D01*
X145028571Y-76383390D02*
X145123809Y-76335771D01*
X145123809Y-76335771D02*
X145314285Y-76335771D01*
X145314285Y-76335771D02*
X145409523Y-76383390D01*
X145409523Y-76383390D02*
X145457142Y-76431009D01*
X145457142Y-76431009D02*
X145504761Y-76526247D01*
D12*
X138540000Y-76640580D02*
X138540000Y-76359420D01*
X139560000Y-76640580D02*
X139560000Y-76359420D01*
X137340000Y-76902836D02*
X137340000Y-76687164D01*
X138060000Y-76902836D02*
X138060000Y-76687164D01*
D13*
X143605000Y-72400000D02*
X143605000Y-71900000D01*
X143605000Y-79200000D02*
X143605000Y-79700000D01*
X144055000Y-71900000D02*
X143605000Y-71900000D01*
X144105000Y-79700000D02*
X143605000Y-79700000D01*
X149255000Y-71900000D02*
X149755000Y-71900000D01*
X149255000Y-79700000D02*
X149755000Y-79700000D01*
X149755000Y-72400000D02*
X149755000Y-71900000D01*
X149755000Y-79200000D02*
X149755000Y-79700000D01*
%LPC*%
D14*
X158105000Y-76200000D03*
X158105000Y-78740000D03*
X158105000Y-81280000D03*
X158105000Y-83820000D03*
X158105000Y-86360000D03*
X158105000Y-88900000D03*
X158105000Y-91440000D03*
X158105000Y-93980000D03*
X158105000Y-96520000D03*
X158105000Y-99060000D03*
X158105000Y-101600000D03*
X158105000Y-104140000D03*
X158105000Y-106680000D03*
D15*
X142099992Y-112366399D03*
X150099992Y-112366399D03*
D14*
X137750000Y-115150000D03*
X135210000Y-115130000D03*
X137785000Y-73300000D03*
X140325000Y-73300000D03*
X142865000Y-73300000D03*
X145405000Y-73300000D03*
X147945000Y-73300000D03*
X150485000Y-73300000D03*
X153025000Y-73300000D03*
X155565000Y-73300000D03*
X135245000Y-76200000D03*
X135245000Y-78740000D03*
X135245000Y-81280000D03*
X135245000Y-83820000D03*
X135245000Y-86360000D03*
X135245000Y-88900000D03*
X135245000Y-91440000D03*
X135245000Y-93980000D03*
X135245000Y-96520000D03*
X135245000Y-99060000D03*
X135245000Y-101600000D03*
X135245000Y-104140000D03*
X135245000Y-106680000D03*
D16*
X140450000Y-79100000D03*
D17*
X140450000Y-81600000D03*
X140450000Y-84100000D03*
D18*
X139050000Y-75725000D03*
X139050000Y-77275000D03*
D19*
X137700000Y-76315000D03*
X137700000Y-77275000D03*
D20*
X145655000Y-78250000D03*
X147655000Y-78250000D03*
%LPD*%
M02*
