G04 #@! TF.GenerationSoftware,KiCad,Pcbnew,8.0.4*
G04 #@! TF.CreationDate,2024-10-10T13:01:36-07:00*
G04 #@! TF.ProjectId,TelemetryComputer,54656c65-6d65-4747-9279-436f6d707574,rev?*
G04 #@! TF.SameCoordinates,Original*
G04 #@! TF.FileFunction,Paste,Top*
G04 #@! TF.FilePolarity,Positive*
%FSLAX46Y46*%
G04 Gerber Fmt 4.6, Leading zero omitted, Abs format (unit mm)*
G04 Created by KiCad (PCBNEW 8.0.4) date 2024-10-10 13:01:36*
%MOMM*%
%LPD*%
G01*
G04 APERTURE LIST*
G04 Aperture macros list*
%AMRoundRect*
0 Rectangle with rounded corners*
0 $1 Rounding radius*
0 $2 $3 $4 $5 $6 $7 $8 $9 X,Y pos of 4 corners*
0 Add a 4 corners polygon primitive as box body*
4,1,4,$2,$3,$4,$5,$6,$7,$8,$9,$2,$3,0*
0 Add four circle primitives for the rounded corners*
1,1,$1+$1,$2,$3*
1,1,$1+$1,$4,$5*
1,1,$1+$1,$6,$7*
1,1,$1+$1,$8,$9*
0 Add four rect primitives between the rounded corners*
20,1,$1+$1,$2,$3,$4,$5,0*
20,1,$1+$1,$4,$5,$6,$7,0*
20,1,$1+$1,$6,$7,$8,$9,0*
20,1,$1+$1,$8,$9,$2,$3,0*%
G04 Aperture macros list end*
%ADD10RoundRect,0.200000X0.275000X-0.200000X0.275000X0.200000X-0.275000X0.200000X-0.275000X-0.200000X0*%
%ADD11RoundRect,0.200000X-0.275000X0.200000X-0.275000X-0.200000X0.275000X-0.200000X0.275000X0.200000X0*%
%ADD12R,0.711200X1.600200*%
%ADD13R,1.193800X2.209800*%
%ADD14R,1.193800X1.800000*%
%ADD15R,1.600200X1.498600*%
%ADD16O,0.800000X1.250000*%
%ADD17R,1.400000X1.600000*%
%ADD18RoundRect,0.200000X-0.200000X-0.275000X0.200000X-0.275000X0.200000X0.275000X-0.200000X0.275000X0*%
G04 APERTURE END LIST*
D10*
X138650000Y-95975000D03*
X138650000Y-94325000D03*
D11*
X145650000Y-80275000D03*
X145650000Y-81925000D03*
X143584302Y-97975000D03*
X143584302Y-99625000D03*
D12*
X149299993Y-101366398D03*
X148199992Y-101366398D03*
X147099992Y-101366398D03*
X145999991Y-101366398D03*
X144899991Y-101366398D03*
X143799991Y-101366398D03*
X142699990Y-101366398D03*
X141599990Y-101366398D03*
D13*
X139300000Y-112194951D03*
X154800000Y-112194951D03*
D14*
X139303098Y-102567793D03*
D15*
X153900084Y-102417101D03*
D12*
X140499990Y-101366398D03*
D11*
X142042151Y-97975000D03*
X142042151Y-99625000D03*
D10*
X140450000Y-95975000D03*
X140450000Y-94325000D03*
D16*
X141450000Y-89650000D03*
X140450000Y-89650000D03*
X139450000Y-89650000D03*
X139450000Y-92750000D03*
X140450000Y-92750000D03*
X141450000Y-92750000D03*
D11*
X146207847Y-97975000D03*
X146207847Y-99625000D03*
D10*
X147650000Y-81925000D03*
X147650000Y-80275000D03*
D11*
X147750000Y-97975000D03*
X147750000Y-99625000D03*
D10*
X142250000Y-95975000D03*
X142250000Y-94325000D03*
D17*
X149650000Y-95450000D03*
X149650000Y-87450000D03*
X154150000Y-95450000D03*
X154150000Y-87450000D03*
D11*
X140500000Y-97975000D03*
X140500000Y-99625000D03*
D18*
X146100000Y-95450000D03*
X147750000Y-95450000D03*
M02*
